<svg width="24" height="24" viewBox="0 0 24 24" fill="none" xmlns="http://www.w3.org/2000/svg">
<g clip-path="url(#clip0_1977_9)">
<path d="M23.1428 13.7145L16.0799 23.143L11.3657 19.6116" stroke="white" stroke-width="1.5" stroke-linecap="round" stroke-linejoin="round"/>
<path d="M8.57138 8.57159C10.7016 8.57159 12.4285 6.84468 12.4285 4.71444C12.4285 2.5842 10.7016 0.8573 8.57138 0.8573C6.44114 0.8573 4.71423 2.5842 4.71423 4.71444C4.71423 6.84468 6.44114 8.57159 8.57138 8.57159Z" stroke="white" stroke-width="1.5" stroke-linecap="round" stroke-linejoin="round"/>
<path d="M5.14283 21.4287H0.857117V18.8573C0.858458 17.3325 1.31162 15.8424 2.15937 14.575C3.00712 13.3076 4.21142 12.3199 5.62019 11.7366C7.02895 11.1533 8.57899 11.0005 10.0745 11.2976C11.57 11.5947 12.944 12.3284 14.0228 13.4059" stroke="white" stroke-width="1.5" stroke-linecap="round" stroke-linejoin="round"/>
</g>
<defs>
<clipPath id="clip0_1977_9">
<rect width="24" height="24" fill="white"/>
</clipPath>
</defs>
</svg>
