<svg width="25" height="24" viewBox="0 0 25 24" fill="none" xmlns="http://www.w3.org/2000/svg">
<g clip-path="url(#clip0_1977_54)">
<path d="M6.25616 12.6051V8.28967C6.26918 7.44139 6.45209 6.60398 6.79439 5.82542C7.1367 5.04685 7.63169 4.34244 8.251 3.75254C8.8703 3.16264 9.60174 2.69885 10.4034 2.38773C11.2051 2.07662 12.0613 1.92431 12.9228 1.93951V1.93951C13.7844 1.92431 14.6406 2.07662 15.4422 2.38773C16.2439 2.69885 16.9754 3.16264 17.5947 3.75254C18.214 4.34244 18.709 5.04685 19.0513 5.82542C19.3936 6.60398 19.5765 7.44139 19.5895 8.28967V12.6051" stroke="white" stroke-width="1.5" stroke-linecap="round" stroke-linejoin="round"/>
<path d="M3.85616 9.93848H5.45616C5.66834 9.93848 5.87182 10.0263 6.02185 10.1826C6.17188 10.3388 6.25616 10.5508 6.25616 10.7718V15.7718C6.25616 15.9928 6.17188 16.2048 6.02185 16.3611C5.87182 16.5173 5.66834 16.6051 5.45616 16.6051H3.85616C3.43182 16.6051 3.02485 16.4295 2.72479 16.117C2.42474 15.8044 2.25616 15.3805 2.25616 14.9385V11.6051C2.25616 11.1631 2.42474 10.7392 2.72479 10.4266C3.02485 10.1141 3.43182 9.93848 3.85616 9.93848V9.93848Z" stroke="white" stroke-width="1.5" stroke-linecap="round" stroke-linejoin="round"/>
<path d="M21.9895 16.6052H20.3895C20.1773 16.6052 19.9738 16.5174 19.8238 16.3611C19.6738 16.2049 19.5895 15.9929 19.5895 15.7719V10.7719C19.5895 10.5509 19.6738 10.3389 19.8238 10.1826C19.9738 10.0264 20.1773 9.93856 20.3895 9.93856H21.9895C22.4138 9.93856 22.8208 10.1142 23.1208 10.4267C23.4209 10.7393 23.5895 11.1632 23.5895 11.6052V14.9386C23.5895 15.3806 23.4209 15.8045 23.1208 16.1171C22.8208 16.4296 22.4138 16.6052 21.9895 16.6052V16.6052Z" stroke="white" stroke-width="1.5" stroke-linecap="round" stroke-linejoin="round"/>
<path d="M15.5895 20.6051C16.6503 20.6051 17.6678 20.2746 18.4179 19.6863C19.168 19.0979 19.5895 18.2999 19.5895 17.4679V13.9385" stroke="white" stroke-width="1.5" stroke-linecap="round" stroke-linejoin="round"/>
<path d="M15.5895 21.2717C15.5895 21.8022 15.4139 22.3109 15.1013 22.6859C14.7888 23.061 14.3649 23.2717 13.9228 23.2717H11.9228C11.4808 23.2717 11.0569 23.061 10.7443 22.6859C10.4318 22.3109 10.2562 21.8022 10.2562 21.2717C10.2562 20.7413 10.4318 20.2326 10.7443 19.8575C11.0569 19.4824 11.4808 19.2717 11.9228 19.2717H13.9228C14.3649 19.2717 14.7888 19.4824 15.1013 19.8575C15.4139 20.2326 15.5895 20.7413 15.5895 21.2717Z" stroke="white" stroke-width="1.5" stroke-linecap="round" stroke-linejoin="round"/>
</g>
<defs>
<clipPath id="clip0_1977_54">
<rect width="24" height="24" fill="white" transform="translate(0.923096)"/>
</clipPath>
</defs>
</svg>
