<svg width="197" height="40" viewBox="0 0 197 40" fill="none" xmlns="http://www.w3.org/2000/svg">
<g clip-path="url(#clip0_1975_1072)">
<path fill-rule="evenodd" clip-rule="evenodd" d="M24.7409 20.4024C24.6849 20.184 24.4985 19.8812 24.4179 19.7834C24.3533 19.72 24.288 19.6123 24.2511 19.4757L24.2585 19.3058L24.3225 18.0055L24.3256 17.9864C24.352 17.7944 24.4843 16.8123 24.4843 16.2978C24.4843 15.7895 24.1613 15.1144 24.0929 14.9778C24.2099 13.9938 24.1416 12.416 24.1342 12.2886C24.1477 12.2031 24.2388 11.5366 24.2388 11.2757C24.2388 11.0178 24.2388 10.5858 23.8585 10.0012C23.4573 9.38337 22.8751 9.33107 22.2689 9.33107C22.2671 9.33107 22.2653 9.33107 22.264 9.33107C22.1656 9.31691 21.4173 8.94645 20.8886 8.67568L20.9089 7.99999C21.0259 7.83999 21.0333 7.77722 21.0357 7.7563C21.0419 7.70645 21.0776 7.44491 21.1145 7.16799L21.1151 7.16245C21.2806 7.08368 21.4043 6.8683 21.4308 6.75445C21.4357 6.7323 21.4425 6.7083 21.448 6.68306C21.5034 6.46337 21.5656 6.21291 21.4179 6.13599C21.4049 6.12922 21.3914 6.12368 21.3779 6.1206C21.4197 5.9163 21.4413 5.6363 21.3594 5.12737C21.2646 4.53783 20.5176 4.32983 19.9083 4.32983H19.8905C19.2696 4.32983 18.52 4.53906 18.4554 5.13168C18.4074 5.57414 18.4 5.9003 18.432 6.12122C18.4197 6.12491 18.4062 6.12983 18.3945 6.13599C18.2462 6.21291 18.3083 6.46337 18.3637 6.68306C18.3693 6.7083 18.376 6.7323 18.3809 6.75445C18.4099 6.88245 18.5366 7.0806 18.6886 7.15876L18.6899 7.17168C18.728 7.44676 18.7631 7.70645 18.7686 7.7563C18.7729 7.79322 18.7902 7.8363 18.8228 7.8923L18.8597 8.67691C18.3311 8.94768 17.5834 9.31753 17.4899 9.33168C16.8769 9.33168 16.2936 9.38276 15.8905 10.0018C15.5096 10.5871 15.5096 11.0184 15.5096 11.2763C15.5096 11.5366 15.6013 12.2037 15.6136 12.2892C15.6074 12.4166 15.5391 13.9944 15.6554 14.9784C15.5865 15.1144 15.264 15.7895 15.264 16.2984C15.264 16.8129 15.3969 17.7957 15.4228 17.9871L15.4253 18.0061L15.4954 19.4141C15.4628 19.5803 15.3877 19.7108 15.3133 19.7846C15.2314 19.8825 15.0462 20.1852 14.9908 20.4037C14.9114 20.7495 14.576 21.2886 14.5945 21.3748C14.6542 21.4874 14.7551 21.5286 14.8462 21.4744C14.9459 21.4068 15.1779 21.1624 15.2086 21.0412C15.2529 21.1908 15.4449 22.2738 15.5194 22.4055C15.5459 22.528 15.6265 22.6381 15.7188 22.6406C15.8037 22.6104 15.8554 22.5704 15.8554 22.5704C15.8813 22.6904 15.9268 22.84 16.0923 22.8492C16.1729 22.8363 16.2062 22.7785 16.2 22.6997C16.2634 22.7206 16.4209 22.6763 16.4646 22.5631C16.5009 22.4646 16.5256 22.3391 16.536 22.2757C16.5348 22.2584 16.5403 22.2523 16.536 22.2757C16.5385 22.3003 16.5649 22.3311 16.6259 22.3341C16.6874 22.3255 16.7348 22.2886 16.7557 22.0597C16.7699 21.9138 16.7668 21.4812 16.7619 21.4591C16.7569 21.4369 16.7342 21.1224 16.7256 20.9754C16.7686 20.8061 16.7446 20.2738 16.7231 20.1766C16.6991 20.0671 16.6585 19.984 16.5194 19.7631C16.5323 19.5741 16.5366 19.4178 16.5391 19.3575C16.5434 19.3015 16.5477 19.2418 16.5496 19.1944C16.5625 18.9489 16.5809 18.6948 16.5834 18.6437C16.6068 18.5655 16.6536 18.4492 16.7089 18.3144C16.8757 17.9083 17.1293 17.2923 17.1182 16.7114C17.1108 16.28 17.0991 15.9194 17.0923 15.744C17.088 15.6184 17.0831 15.5175 17.0806 15.4486C17.0776 15.4092 17.0769 15.3766 17.0726 15.3508L17.0751 15.3329C17.1169 14.9495 17.1969 14.2061 17.2296 13.6769C17.3428 14 17.5157 14.4271 17.7459 14.8154C17.7453 15.3698 17.7286 15.7212 17.7157 16.0037C17.7065 16.1791 17.7003 16.3206 17.6991 16.4652C17.6228 16.5815 17.3059 17.1194 17.3022 17.9169C17.176 18.3784 17.0474 18.8917 17.0406 19.2098V19.2141V19.2172C17.0437 19.2511 17.2757 22.5951 17.5274 23.4874C17.5729 23.6468 17.6259 23.8215 17.6813 24.0055C17.9022 24.7403 18.1773 25.6548 18.1557 26.2024C18.1477 26.4277 18.0825 26.6209 18.008 26.8443C17.8585 27.2868 17.6899 27.7901 17.8917 28.7421C18.0579 29.5231 18.1705 29.8671 18.2788 30.2012C18.368 30.4788 18.4536 30.7403 18.5674 31.2351C18.6173 31.4511 18.6579 31.6277 18.6923 31.7754C18.8253 32.3458 18.8542 32.4683 18.8573 32.6726C18.8129 32.7028 18.7483 32.7557 18.7059 32.8338C18.6634 32.9114 18.6616 33.0308 18.7053 33.1163C18.6197 33.1957 18.5231 33.2738 18.4665 33.3114C18.3902 33.3655 18.2776 33.4843 18.248 33.5175C18.1994 33.5551 18.1797 33.6135 18.1705 33.6572C18.1225 33.6886 18.0936 33.7341 18.0923 33.7895C18.0905 33.8664 18.1428 33.9409 18.2166 33.9711C18.2616 33.9877 18.3096 33.9908 18.3459 33.984C18.3742 34 18.4148 34.0123 18.4726 34.0172C18.5379 34.024 18.584 34.016 18.6197 34.0043C18.6456 34.0191 18.6819 34.0277 18.7293 34.0277C18.8025 34.0277 18.8548 34.0154 18.8923 33.9969C18.9256 34.0234 18.9705 34.0437 19.0326 34.0437H19.0493C19.1822 34.0437 19.2689 34.0068 19.3213 33.9674C19.3822 34.0092 19.4843 34.048 19.6616 34.0314C19.7539 34.0228 19.8246 34.0006 19.8733 33.9674C19.9225 34.0012 19.9926 34.0234 20.0862 34.0314C20.2628 34.0474 20.3649 34.0092 20.4265 33.9674C20.4794 34.0068 20.5643 34.0437 20.6979 34.0437H20.7133C20.7748 34.0437 20.8216 34.0234 20.8542 33.9969C20.8917 34.0154 20.9446 34.0277 21.0148 34.0277H21.0222C21.0677 34.0277 21.1022 34.0191 21.128 34.0043C21.1637 34.0166 21.2099 34.0234 21.2733 34.0172C21.3305 34.0123 21.3717 34.0006 21.3994 33.984C21.4357 33.9914 21.4862 33.9883 21.5305 33.9711C21.6037 33.9409 21.6566 33.8664 21.6548 33.7895C21.6529 33.7341 21.624 33.6886 21.5754 33.6572C21.5674 33.6141 21.5471 33.5551 21.4985 33.5175C21.4696 33.4843 21.3569 33.3655 21.2806 33.3114C21.2246 33.2732 21.128 33.1957 21.0425 33.1163C21.0862 33.0308 21.0849 32.9114 21.0419 32.8338C20.9988 32.7557 20.9348 32.7028 20.8899 32.6726C20.8936 32.4683 20.9219 32.3458 21.0554 31.7754C21.0899 31.6277 21.1311 31.4511 21.1816 31.2351C21.2942 30.7403 21.3797 30.4788 21.4702 30.2012C21.5791 29.8671 21.6905 29.5224 21.8554 28.7421C22.0579 27.7901 21.8893 27.2868 21.7403 26.8443C21.6659 26.6209 21.6006 26.4277 21.592 26.2024C21.5711 25.6541 21.8456 24.7403 22.0671 24.0055C22.1225 23.8215 22.1748 23.6468 22.2197 23.4874C22.4733 22.5951 22.704 19.2504 22.7059 19.2172V19.2141V19.2098C22.6991 18.8917 22.5711 18.3784 22.4449 17.9169C22.4419 17.12 22.1243 16.5821 22.048 16.4652C22.0474 16.3206 22.0406 16.1791 22.032 16.0037C22.0185 15.7212 22.0013 15.3698 22.0006 14.8154C22.232 14.4271 22.4043 14 22.5169 13.6769C22.5502 14.2061 22.6296 14.9495 22.672 15.3329L22.6739 15.3508C22.6696 15.3766 22.6689 15.4092 22.6665 15.4486C22.664 15.5175 22.6597 15.6184 22.6542 15.744C22.6493 15.9194 22.6363 16.28 22.6289 16.7114C22.6173 17.2923 22.8708 17.9083 23.0376 18.3144C23.0923 18.4486 23.1403 18.5655 23.1637 18.6437C23.1662 18.704 23.1809 19.0264 23.1877 19.2966C23.1902 19.3754 23.192 19.5114 23.192 19.5114L23.1951 19.5132C23.1982 19.584 23.2019 19.6695 23.2086 19.7631C23.0689 19.984 23.0277 20.0671 23.0056 20.1766C22.984 20.2738 22.9594 20.8061 23.0025 20.9754C22.9933 21.1224 22.9717 21.4369 22.9668 21.4591C22.9619 21.4806 22.9588 21.9132 22.9723 22.0597C22.9939 22.2886 23.0419 22.3261 23.1028 22.3341C23.1637 22.3311 23.1902 22.3003 23.192 22.2757C23.1877 22.2523 23.1933 22.2584 23.192 22.2757C23.2037 22.3391 23.2277 22.4646 23.2634 22.5631C23.3077 22.6763 23.4665 22.7206 23.528 22.6997C23.5219 22.7785 23.5545 22.8369 23.6357 22.8492C23.8031 22.84 23.848 22.6904 23.8733 22.5704C23.8733 22.5704 23.9256 22.6104 24.0099 22.6406C24.1016 22.6381 24.1828 22.528 24.2086 22.4055C24.2831 22.2738 24.4745 21.1908 24.52 21.0412C24.5508 21.1624 24.7834 21.4068 24.8831 21.4744C24.9736 21.5286 25.0745 21.4874 25.1342 21.3748C25.1551 21.288 24.8203 20.7483 24.7409 20.4024ZM19.8259 23.6215C19.8259 23.6172 19.8456 23.3748 19.8708 23.0935L19.9237 23.6197C19.9428 23.9871 19.912 24.4468 19.8745 24.8572C19.8382 24.4468 19.8074 23.9871 19.8259 23.6215ZM19.9705 33.3464C19.9791 33.3815 19.9299 33.4769 19.8806 33.5409C19.8788 33.5421 19.8769 33.544 19.8739 33.5464C19.872 33.544 19.8702 33.5421 19.8689 33.5409C19.8191 33.4769 19.7705 33.3809 19.7791 33.3464C19.8813 32.9415 19.7963 32.7138 19.7939 32.7077C19.7299 32.5138 19.6209 30.8092 19.7114 30.3588L19.7323 30.2554C19.792 29.9557 19.8474 29.6849 19.8739 29.3434C19.9022 29.6855 19.9563 29.9557 20.0173 30.2554L20.0369 30.3588C20.1274 30.8092 20.0191 32.5138 19.9563 32.7052C19.9533 32.7132 19.8683 32.9409 19.9705 33.3464Z" fill="#388DCA"/>
<path d="M39.4283 39.5841C33.4744 37.882 28.9661 29.9035 28.9661 20.3084C28.9661 10.7133 33.4744 2.73549 39.4283 1.0321V0.972412C31.6615 2.54472 25.7446 10.5989 25.7446 20.3084C25.7446 30.0167 31.6609 38.0709 39.4276 39.6432V39.5841H39.4283Z" fill="#231F20"/>
<path d="M0.302124 1.03149C6.25597 2.73549 10.7643 10.7133 10.7643 20.3078C10.7643 29.9035 6.25535 37.882 0.302124 39.5841V39.6432C8.06889 38.0709 13.9852 30.0167 13.9852 20.3078C13.9852 10.5989 8.06889 2.54472 0.302124 0.972412V1.03149Z" fill="#231F20"/>
<path d="M51.2092 10.5072H40.4234V15.4647H49.984V18.461H40.4234V23.581H51.3459V26.5779H37.0726V7.51147H51.2092V10.5072Z" fill="#388DCA"/>
<path d="M68.88 26.5778L63.4954 19.2615L58.08 26.5778H53.9539L61.4166 16.7495L54.2468 7.25415H58.4905L63.5828 14.1828L68.704 7.25415H72.8308L65.6899 16.6948L73.1231 26.5785H68.88V26.5778Z" fill="#388DCA"/>
<path d="M83.7908 20.4487H80.0049V26.5779H76.6548V7.51147H84.1723C88.6123 7.51147 91.4173 10.0173 91.4173 13.9121C91.4173 18.2149 87.9853 20.4487 83.7908 20.4487ZM83.8991 10.5626H80.0043V17.4259H83.8991C86.4326 17.4259 88.0123 16.037 88.0123 13.9939C88.0129 11.733 86.4056 10.5626 83.8991 10.5626Z" fill="#388DCA"/>
<path d="M108.986 10.5072H98.2V15.4647H107.761V18.461H98.2V23.581H109.122V26.5779H94.8505V7.51147H108.986V10.5072Z" fill="#388DCA"/>
<path d="M125.328 26.5779L120.644 19.9312H116.449V26.5779H113.099V7.51147H121.598C125.983 7.51147 128.681 9.82655 128.681 13.5582C128.681 16.7182 126.801 18.6241 124.131 19.3601L129.279 26.5786H125.328V26.5779ZM121.325 10.5626H116.449V16.9626H121.352C123.749 16.9626 125.275 15.7096 125.275 13.7484C125.275 11.6518 123.804 10.5626 121.325 10.5626Z" fill="#388DCA"/>
<path d="M140.773 26.5779H137.396V10.6161H131.349V7.51147H146.82V10.6161H140.774V26.5779H140.773Z" fill="#388DCA"/>
<path d="M159.731 21.8924H159.622L153.657 12.9589V26.5779H150.362V7.51147H153.93L159.732 16.5269L165.533 7.51147H169.101V26.5785H165.751V12.9047L159.731 21.8924Z" fill="#231F20"/>
<path d="M185.552 26.5779L180.867 19.9312H176.673V26.5779H173.324V7.51147H181.821C186.207 7.51147 188.903 9.82655 188.903 13.5582C188.903 16.7182 187.024 18.6241 184.354 19.3601L189.503 26.5785H185.552V26.5779ZM181.548 10.5626H176.673V16.9626H181.576C183.974 16.9626 185.498 15.7096 185.498 13.7484C185.498 11.6518 184.028 10.5626 181.548 10.5626Z" fill="#231F20"/>
<path d="M196.556 7.51147V26.5785H193.206V7.51147H196.556Z" fill="#231F20"/>
<path d="M49.7144 30.0203H53.8123L53.7188 30.4738H51.936L50.8332 35.651H50.3015L51.4043 30.4738H49.6209L49.7144 30.0203Z" fill="black"/>
<path d="M54.6652 33.7347C54.6185 33.9544 54.6025 34.1611 54.6185 34.3574C54.6339 34.5531 54.6837 34.723 54.7668 34.8651C54.8499 35.0091 54.9692 35.1236 55.1225 35.2104C55.2763 35.2959 55.4659 35.339 55.6899 35.339C55.9975 35.339 56.2775 35.2584 56.5305 35.0965C56.7834 34.9347 56.9779 34.7045 57.1132 34.4085H57.6375C57.5379 34.6011 57.4246 34.7802 57.2972 34.9439C57.1699 35.1076 57.0222 35.2504 56.8554 35.374C56.688 35.4959 56.5003 35.5919 56.2917 35.659C56.0837 35.7267 55.8511 35.7611 55.5957 35.7611C55.2726 35.7611 55.0055 35.7064 54.7939 35.5968C54.5828 35.4867 54.4215 35.3371 54.3095 35.1464C54.1969 34.9562 54.1336 34.7328 54.1176 34.4737C54.1022 34.2159 54.1255 33.9384 54.1883 33.6417C54.2505 33.3439 54.3526 33.0645 54.4929 32.8042C54.6339 32.5439 54.8043 32.3156 55.0055 32.1211C55.2062 31.9254 55.4326 31.771 55.6855 31.659C55.9379 31.5464 56.2105 31.491 56.5028 31.491C57.0609 31.491 57.4585 31.6836 57.6954 32.067C57.9329 32.4497 57.9705 33.006 57.8086 33.7353H54.6652V33.7347ZM57.3945 33.3445C57.4363 33.147 57.448 32.9599 57.4295 32.7857C57.4117 32.6116 57.3631 32.4602 57.2849 32.3328C57.2068 32.2042 57.0942 32.1027 56.9489 32.0276C56.8025 31.9519 56.6259 31.9144 56.4172 31.9144C56.2086 31.9144 56.0172 31.9531 55.8419 32.0307C55.6671 32.11 55.5095 32.214 55.3692 32.3439C55.2283 32.4737 55.1059 32.6251 55.0019 32.7968C54.8979 32.9685 54.8142 33.1519 54.7514 33.3445H57.3945Z" fill="black"/>
<path d="M62.4381 32.8761C62.4227 32.5727 62.3316 32.337 62.1643 32.1684C61.9975 31.9991 61.7575 31.9142 61.4449 31.9142C61.2049 31.9142 60.9883 31.9635 60.7957 32.0625C60.603 32.1616 60.4332 32.2933 60.288 32.4576C60.1415 32.6219 60.0215 32.8059 59.928 33.0121C59.8344 33.2182 59.7637 33.4262 59.7169 33.6348C59.6701 33.849 59.6504 34.0564 59.6578 34.2601C59.6658 34.4638 59.7077 34.6459 59.7833 34.8078C59.859 34.9696 59.9723 35.0988 60.123 35.1948C60.2744 35.2908 60.4726 35.3395 60.7175 35.3395C61.067 35.3395 61.368 35.2428 61.6209 35.0508C61.8738 34.8576 62.0627 34.5911 62.1876 34.2521H62.688C62.5993 34.4755 62.4904 34.6804 62.3593 34.8656C62.2295 35.0521 62.0781 35.2108 61.9058 35.3425C61.7341 35.4761 61.5409 35.5782 61.3273 35.6515C61.1138 35.7247 60.8787 35.7616 60.6233 35.7616C60.3003 35.7616 60.0332 35.7068 59.8215 35.5973C59.6104 35.4871 59.4492 35.3376 59.3372 35.1468C59.2246 34.9567 59.1612 34.7315 59.1452 34.4705C59.1292 34.2096 59.1532 33.9308 59.216 33.6348C59.2732 33.3518 59.3698 33.0828 59.5052 32.8256C59.6406 32.5671 59.8073 32.3388 60.0055 32.1407C60.2037 31.9419 60.432 31.7856 60.6898 31.6675C60.9483 31.5499 61.2283 31.4915 61.531 31.4915C62.0006 31.4915 62.3556 31.6035 62.5987 31.8275C62.8412 32.0515 62.9464 32.4016 62.9156 32.8767H62.4381V32.8761Z" fill="black"/>
<path d="M63.9944 35.6515L65.1908 30.0208H65.6603L65.2068 32.1641C65.4363 31.966 65.6646 31.8041 65.8911 31.6798C66.1181 31.5531 66.3723 31.4909 66.6535 31.4909C66.904 31.4909 67.1274 31.5346 67.3224 31.6208C67.5175 31.7063 67.6652 31.8564 67.7643 32.07C67.832 32.2158 67.8591 32.3647 67.8461 32.5186C67.8332 32.6731 67.808 32.8337 67.7717 32.9998L67.2086 35.6509H66.7397L67.3027 33.0078C67.3809 32.6423 67.3587 32.3684 67.2363 32.1863C67.1138 32.0048 66.8652 31.9137 66.4898 31.9137C66.344 31.9137 66.2061 31.9346 66.0757 31.9789C65.9458 32.0238 65.824 32.0823 65.712 32.1543C65.5994 32.2288 65.4991 32.3118 65.4111 32.4054C65.3224 32.4995 65.2492 32.5986 65.192 32.702C65.1188 32.8331 65.064 32.9574 65.0277 33.0774C64.9908 33.1974 64.9569 33.3272 64.9255 33.4694L64.464 35.6503H63.9944V35.6515Z" fill="black"/>
<path d="M69.4763 35.6516H69.0068L69.8671 31.6005H70.3366L70.2197 32.1642C70.4492 31.966 70.6769 31.8042 70.904 31.6799C71.1311 31.5531 71.3852 31.491 71.6665 31.491C71.9169 31.491 72.1397 31.5347 72.3354 31.6208C72.5311 31.7064 72.6782 31.8565 72.7772 32.07C72.8449 32.2159 72.872 32.3648 72.8591 32.5187C72.8462 32.6731 72.8209 32.8337 72.7846 32.9999L72.2209 35.651H71.752L72.3151 33.0079C72.3938 32.6424 72.3711 32.3685 72.2486 32.1864C72.1262 32.0048 71.8775 31.9137 71.5022 31.9137C71.3563 31.9137 71.2185 31.9347 71.088 31.979C70.9575 32.0239 70.8363 32.0824 70.7243 32.1544C70.6117 32.2288 70.5114 32.3119 70.4234 32.4054C70.3348 32.4996 70.2615 32.5987 70.2043 32.702C70.1311 32.8331 70.0763 32.9574 70.04 33.0774C70.0031 33.1974 69.9692 33.3273 69.9379 33.4694L69.4763 35.6516Z" fill="black"/>
<path d="M75.608 35.7611C75.347 35.7562 75.1138 35.7088 74.9083 35.6202C74.7021 35.5322 74.5329 35.3993 74.3994 35.222C74.2664 35.0454 74.179 34.8227 74.1378 34.5574C74.096 34.291 74.112 33.9808 74.1846 33.6257C74.2474 33.3291 74.3452 33.0516 74.4781 32.7931C74.611 32.534 74.7766 32.3094 74.9747 32.1174C75.1729 31.9242 75.4006 31.771 75.659 31.659C75.9169 31.5464 76.2024 31.491 76.515 31.491C76.8332 31.491 77.0978 31.547 77.3095 31.659C77.5206 31.771 77.683 31.923 77.7981 32.1131C77.9132 32.3033 77.9803 32.5279 78.0018 32.7888C78.0227 33.0504 78.0018 33.3285 77.939 33.6251C77.8714 33.9482 77.7643 34.2411 77.6184 34.502C77.4732 34.7617 77.2978 34.987 77.0947 35.1747C76.8917 35.3617 76.6634 35.5064 76.4104 35.6085C76.1563 35.71 75.8892 35.7611 75.608 35.7611ZM77.4375 33.6257C77.4843 33.3864 77.5052 33.1624 77.5003 32.9531C77.4947 32.7445 77.4547 32.5636 77.379 32.4097C77.3034 32.2559 77.1883 32.1347 77.035 32.046C76.8812 31.9574 76.6787 31.9137 76.4289 31.9137C76.184 31.9137 75.9637 31.9611 75.768 32.0584C75.5729 32.1531 75.4018 32.2824 75.2554 32.4411C75.1095 32.6005 74.9895 32.7827 74.896 32.9888C74.8024 33.195 74.7317 33.4067 74.6849 33.6251C74.6332 33.8762 74.6147 34.1057 74.6301 34.3174C74.6461 34.5291 74.6954 34.7094 74.779 34.8608C74.8621 35.0128 74.9809 35.1297 75.1354 35.214C75.2892 35.2965 75.4781 35.3384 75.7021 35.3384C75.947 35.3384 76.1673 35.2897 76.363 35.1937C76.5587 35.0977 76.728 34.9685 76.8714 34.8067C77.0147 34.6448 77.1335 34.4627 77.2277 34.259C77.3206 34.0559 77.3907 33.8448 77.4375 33.6257Z" fill="black"/>
<path d="M79.1034 35.6515L80.2997 30.0208H80.7686L79.5723 35.6515H79.1034Z" fill="black"/>
<path d="M83.0215 35.7611C82.7606 35.7562 82.5274 35.7088 82.3219 35.6202C82.1157 35.5322 81.9465 35.3993 81.8129 35.222C81.6806 35.0454 81.5926 34.8227 81.5514 34.5574C81.5095 34.291 81.5255 33.9808 81.5982 33.6257C81.6609 33.3291 81.7582 33.0516 81.8911 32.7931C82.024 32.534 82.1895 32.3094 82.3883 32.1174C82.5859 31.9242 82.8142 31.771 83.0726 31.659C83.3305 31.5464 83.616 31.491 83.9292 31.491C84.2468 31.491 84.512 31.547 84.7231 31.659C84.9342 31.771 85.0972 31.923 85.2117 32.1131C85.3268 32.3033 85.3945 32.5279 85.4154 32.7888C85.4363 33.0504 85.4154 33.3285 85.3526 33.6251C85.2849 33.9482 85.1779 34.2411 85.032 34.502C84.8862 34.7617 84.7114 34.987 84.5083 35.1747C84.3052 35.3617 84.0769 35.5064 83.824 35.6085C83.5699 35.71 83.3028 35.7611 83.0215 35.7611ZM84.8511 33.6257C84.8985 33.3864 84.9188 33.1624 84.9139 32.9531C84.9083 32.7445 84.8683 32.5636 84.7926 32.4097C84.7163 32.2559 84.6025 32.1347 84.4486 32.046C84.2948 31.9574 84.0923 31.9137 83.8425 31.9137C83.5976 31.9137 83.3772 31.9611 83.1815 32.0584C82.9865 32.1531 82.8154 32.2824 82.6689 32.4411C82.5231 32.6005 82.4031 32.7827 82.3095 32.9888C82.216 33.195 82.1452 33.4067 82.0985 33.6251C82.0468 33.8762 82.0283 34.1057 82.0437 34.3174C82.0597 34.5291 82.1089 34.7094 82.192 34.8608C82.2757 35.0128 82.3945 35.1297 82.5483 35.214C82.7022 35.2965 82.8911 35.3384 83.1151 35.3384C83.36 35.3384 83.5803 35.2897 83.776 35.1937C83.9717 35.0977 84.1409 34.9685 84.2843 34.8067C84.4277 34.6448 84.5465 34.4627 84.64 34.259C84.7342 34.0559 84.8049 33.8448 84.8511 33.6257Z" fill="black"/>
<path d="M90.4351 31.6005H90.9046L90.1305 35.2608C90.0732 35.5322 89.9902 35.7906 89.8843 36.0386C89.7772 36.286 89.632 36.5039 89.4499 36.6922C89.2671 36.8799 89.0412 37.0294 88.7729 37.1414C88.5046 37.2534 88.1772 37.3094 87.7914 37.3094C87.4942 37.3094 87.2468 37.2719 87.0486 37.1962C86.8505 37.1205 86.6954 37.0251 86.5834 36.9106C86.4708 36.7956 86.3957 36.6682 86.3563 36.5316C86.3175 36.3925 86.3077 36.2633 86.3292 36.1445H86.8296C86.8296 36.2959 86.8579 36.4196 86.9157 36.5162C86.9729 36.6116 87.0499 36.6879 87.1465 36.7426C87.2431 36.798 87.3532 36.835 87.4788 36.8559C87.6037 36.8762 87.7372 36.8879 87.8775 36.8879C88.1957 36.8879 88.4628 36.8319 88.6794 36.7223C88.896 36.6134 89.0732 36.4706 89.2111 36.2934C89.3496 36.1156 89.456 35.9156 89.5317 35.6903C89.6068 35.4663 89.6689 35.238 89.7151 35.0036C89.5114 35.2522 89.264 35.443 88.9723 35.5697C88.68 35.6983 88.3908 35.7623 88.104 35.7623C87.7963 35.7623 87.5409 35.7033 87.3372 35.587C87.1342 35.4682 86.9785 35.3119 86.872 35.1168C86.7649 34.9211 86.7028 34.6934 86.6843 34.4325C86.6659 34.1728 86.688 33.9002 86.7508 33.619C86.8136 33.3223 86.9065 33.0436 87.0326 32.7833C87.1575 32.5217 87.3139 32.2971 87.5016 32.1057C87.6892 31.9162 87.9096 31.7654 88.1625 31.6565C88.4154 31.547 88.7059 31.4922 89.0345 31.4922C89.1643 31.4922 89.2936 31.5113 89.4216 31.547C89.5496 31.5839 89.6696 31.6362 89.7816 31.7039C89.8936 31.771 89.9926 31.8577 90.0788 31.9617C90.1649 32.0663 90.2283 32.1833 90.2702 32.3137H90.2856L90.4351 31.6005ZM90.0049 33.6423C90.0572 33.3968 90.0757 33.1679 90.0597 32.9574C90.0437 32.7457 89.9945 32.5636 89.9108 32.4097C89.8271 32.2559 89.7102 32.1346 89.5588 32.046C89.4068 31.9574 89.2222 31.9137 89.0037 31.9137C88.8055 31.9137 88.6154 31.9488 88.4326 32.019C88.2499 32.0891 88.0819 32.1919 87.9286 32.3279C87.7748 32.4633 87.6412 32.6288 87.5299 32.8251C87.4179 33.0196 87.3329 33.2466 87.2757 33.5008C87.2129 33.7568 87.1846 33.995 87.1895 34.2165C87.1945 34.438 87.2382 34.6331 87.3188 34.7993C87.3994 34.966 87.5182 35.0977 87.6745 35.1943C87.8308 35.2903 88.0314 35.339 88.2769 35.339C88.4911 35.339 88.6917 35.2928 88.8794 35.2011C89.0671 35.1113 89.2363 34.9888 89.3877 34.835C89.5391 34.6799 89.6683 34.5008 89.7748 34.2946C89.8812 34.0891 89.9582 33.8713 90.0049 33.6423Z" fill="black"/>
<path d="M91.624 36.747C91.6812 36.7575 91.7422 36.7674 91.8074 36.7778C91.8726 36.7895 91.9391 36.7938 92.0068 36.7938C92.1366 36.7938 92.2529 36.752 92.3545 36.6689C92.456 36.5864 92.5465 36.4867 92.624 36.3704C92.7015 36.2541 92.7735 36.1317 92.8388 36.0049C92.904 35.8787 92.968 35.7704 93.0308 35.6824L92.3268 31.6006H92.8505L93.4142 35.0806L95.448 31.6006H95.9557L93.5938 35.5975C93.4425 35.8517 93.3046 36.0824 93.1797 36.2843C93.0542 36.488 92.9292 36.6609 92.8043 36.8055C92.6794 36.9489 92.5483 37.0584 92.4135 37.1335C92.2775 37.2086 92.1292 37.2474 91.9674 37.2474C91.8843 37.2474 91.8049 37.2418 91.7292 37.232C91.6529 37.2215 91.5871 37.208 91.5298 37.1932L91.624 36.747Z" fill="black"/>
<path d="M101.094 29.2393V37.7869H100.695V29.2393H101.094Z" fill="black"/>
<path d="M106.6 33.9704C106.567 34.2196 106.58 34.4326 106.632 34.6079C106.684 34.7821 106.769 34.9236 106.889 35.0332C107.01 35.1427 107.158 35.2233 107.335 35.2719C107.513 35.3218 107.707 35.3464 107.921 35.3464C108.172 35.3464 108.395 35.3156 108.591 35.2516C108.785 35.1895 108.953 35.1058 109.091 34.9993C109.23 34.8916 109.342 34.7673 109.428 34.6276C109.514 34.4861 109.572 34.3384 109.603 34.1821C109.65 33.963 109.639 33.7846 109.569 33.6504C109.497 33.5132 109.391 33.403 109.248 33.3175C109.103 33.2313 108.935 33.1624 108.743 33.1101C108.55 33.0584 108.351 33.0073 108.149 32.9575C107.945 32.9076 107.747 32.8492 107.554 32.7821C107.361 32.7144 107.197 32.6227 107.062 32.5089C106.926 32.3938 106.828 32.2461 106.767 32.067C106.708 31.8861 106.706 31.6584 106.764 31.3821C106.806 31.1895 106.886 31.0012 107.007 30.8196C107.126 30.6363 107.281 30.4744 107.468 30.3347C107.657 30.1932 107.879 30.0812 108.136 29.9981C108.394 29.9144 108.68 29.8726 108.993 29.8726C109.311 29.8726 109.578 29.9169 109.795 30.0061C110.012 30.0947 110.182 30.2166 110.306 30.3686C110.433 30.5236 110.513 30.7027 110.55 30.9052C110.586 31.1089 110.578 31.3255 110.526 31.5538H110.018C110.065 31.3403 110.066 31.1556 110.022 30.9993C109.978 30.843 109.904 30.7156 109.799 30.6166C109.695 30.5175 109.564 30.4449 109.405 30.3975C109.246 30.3513 109.078 30.3279 108.899 30.3279C108.629 30.3279 108.393 30.3655 108.192 30.4412C107.993 30.5169 107.824 30.6141 107.689 30.7347C107.553 30.8541 107.449 30.9876 107.375 31.1341C107.303 31.2787 107.263 31.4258 107.258 31.5716C107.248 31.7538 107.289 31.9003 107.379 32.0098C107.471 32.1199 107.591 32.2079 107.743 32.2793C107.895 32.3489 108.066 32.4067 108.26 32.451C108.453 32.4953 108.649 32.5409 108.846 32.5913C109.044 32.6412 109.234 32.6996 109.417 32.7679C109.599 32.8356 109.753 32.9273 109.878 33.0418C110.004 33.1563 110.093 33.3021 110.147 33.4836C110.202 33.6633 110.201 33.8879 110.143 34.1593C110.034 34.6812 109.768 35.0849 109.346 35.3729C108.924 35.659 108.386 35.8018 107.735 35.8018C107.444 35.8018 107.18 35.7643 106.945 35.6879C106.711 35.6129 106.521 35.4978 106.37 35.3439C106.222 35.1901 106.122 35.0006 106.069 34.7735C106.017 34.5458 106.022 34.2793 106.086 33.9716H106.6V33.9704Z" fill="black"/>
<path d="M114.85 32.8761C114.834 32.5727 114.743 32.337 114.577 32.1684C114.41 31.9991 114.169 31.9142 113.857 31.9142C113.617 31.9142 113.401 31.9635 113.208 32.0625C113.015 32.1616 112.845 32.2933 112.699 32.4576C112.553 32.6219 112.433 32.8059 112.34 33.0121C112.246 33.2182 112.176 33.4262 112.129 33.6348C112.082 33.849 112.061 34.0564 112.07 34.2601C112.078 34.4638 112.119 34.6459 112.195 34.8078C112.27 34.9696 112.383 35.0988 112.535 35.1948C112.686 35.2908 112.885 35.3395 113.129 35.3395C113.478 35.3395 113.78 35.2428 114.033 35.0508C114.285 34.8576 114.475 34.5911 114.599 34.2521H115.1C115.012 34.4755 114.903 34.6804 114.771 34.8656C114.641 35.0521 114.49 35.2108 114.319 35.3425C114.147 35.4761 113.953 35.5782 113.74 35.6515C113.526 35.7247 113.291 35.7616 113.035 35.7616C112.713 35.7616 112.444 35.7068 112.234 35.5973C112.023 35.4871 111.862 35.3376 111.75 35.1468C111.637 34.9567 111.573 34.7315 111.558 34.4705C111.542 34.2096 111.565 33.9308 111.626 33.6348C111.684 33.3518 111.781 33.0828 111.917 32.8256C112.052 32.5671 112.218 32.3388 112.418 32.1407C112.616 31.9419 112.844 31.7856 113.103 31.6675C113.36 31.5499 113.639 31.4915 113.943 31.4915C114.412 31.4915 114.767 31.6035 115.01 31.8275C115.252 32.0515 115.357 32.4016 115.327 32.8767H114.85V32.8761Z" fill="black"/>
<path d="M116.477 35.6516L117.337 31.6006H117.806L116.946 35.6516H116.477ZM117.501 30.7175L117.65 30.0203H118.166L118.017 30.7175H117.501Z" fill="black"/>
<path d="M119.503 33.7347C119.457 33.9544 119.441 34.1611 119.457 34.3574C119.471 34.5531 119.521 34.723 119.606 34.8651C119.688 35.0091 119.807 35.1236 119.961 35.2104C120.114 35.2959 120.305 35.339 120.528 35.339C120.834 35.339 121.116 35.2584 121.369 35.0965C121.621 34.9347 121.815 34.7045 121.951 34.4085H122.476C122.376 34.6011 122.263 34.7802 122.135 34.9439C122.007 35.1076 121.86 35.2504 121.692 35.374C121.526 35.4959 121.339 35.5919 121.13 35.659C120.921 35.7267 120.689 35.7611 120.433 35.7611C120.111 35.7611 119.842 35.7064 119.631 35.5968C119.42 35.4867 119.258 35.3371 119.146 35.1464C119.034 34.9562 118.971 34.7328 118.956 34.4737C118.94 34.2159 118.963 33.9384 119.026 33.6417C119.088 33.3439 119.19 33.0645 119.33 32.8042C119.471 32.5439 119.641 32.3156 119.842 32.1211C120.043 31.9254 120.27 31.771 120.523 31.659C120.775 31.5464 121.047 31.491 121.34 31.491C121.898 31.491 122.295 31.6836 122.533 32.067C122.769 32.4497 122.807 33.006 122.646 33.7353H119.503V33.7347ZM122.233 33.3445C122.274 33.147 122.286 32.9599 122.269 32.7857C122.25 32.6116 122.202 32.4602 122.124 32.3328C122.046 32.2042 121.934 32.1027 121.788 32.0276C121.641 31.9519 121.465 31.9144 121.256 31.9144C121.047 31.9144 120.856 31.9531 120.681 32.0307C120.506 32.11 120.348 32.214 120.207 32.3439C120.066 32.4737 119.944 32.6251 119.839 32.7968C119.735 32.9685 119.652 33.1519 119.591 33.3445H122.233Z" fill="black"/>
<path d="M124.29 35.6516H123.82L124.681 31.6005H125.15L125.032 32.1642C125.263 31.966 125.49 31.8042 125.716 31.6799C125.943 31.5531 126.198 31.491 126.479 31.491C126.729 31.491 126.953 31.5347 127.147 31.6208C127.343 31.7064 127.491 31.8565 127.59 32.07C127.657 32.2159 127.684 32.3648 127.671 32.5187C127.658 32.6731 127.633 32.8337 127.598 32.9999L127.034 35.651H126.566L127.128 33.0079C127.206 32.6424 127.185 32.3685 127.062 32.1864C126.94 32.0048 126.69 31.9137 126.315 31.9137C126.169 31.9137 126.031 31.9347 125.9 31.979C125.77 32.0239 125.65 32.0824 125.537 32.1544C125.425 32.2288 125.324 32.3119 125.236 32.4054C125.146 32.4996 125.074 32.5987 125.017 32.702C124.945 32.8331 124.89 32.9574 124.853 33.0774C124.815 33.1974 124.783 33.3273 124.751 33.4694L124.29 35.6516Z" fill="black"/>
<path d="M132.29 32.8761C132.275 32.5727 132.183 32.337 132.017 32.1684C131.85 31.9991 131.61 31.9142 131.297 31.9142C131.058 31.9142 130.842 31.9635 130.648 32.0625C130.454 32.1616 130.285 32.2933 130.14 32.4576C129.994 32.6219 129.874 32.8059 129.78 33.0121C129.686 33.2182 129.615 33.4262 129.569 33.6348C129.521 33.849 129.503 34.0564 129.51 34.2601C129.518 34.4638 129.559 34.6459 129.634 34.8078C129.711 34.9696 129.824 35.0988 129.975 35.1948C130.126 35.2908 130.324 35.3395 130.57 35.3395C130.919 35.3395 131.22 35.2428 131.473 35.0508C131.726 34.8576 131.915 34.5911 132.041 34.2521H132.541C132.452 34.4755 132.342 34.6804 132.213 34.8656C132.082 35.0521 131.931 35.2108 131.758 35.3425C131.586 35.4761 131.394 35.5782 131.181 35.6515C130.967 35.7247 130.732 35.7616 130.477 35.7616C130.154 35.7616 129.886 35.7068 129.674 35.5973C129.463 35.4871 129.302 35.3376 129.19 35.1468C129.078 34.9567 129.014 34.7315 128.998 34.4705C128.982 34.2096 129.006 33.9308 129.068 33.6348C129.126 33.3518 129.222 33.0828 129.358 32.8256C129.494 32.5671 129.66 32.3388 129.858 32.1407C130.057 31.9419 130.284 31.7856 130.543 31.6675C130.801 31.5493 131.081 31.4915 131.384 31.4915C131.852 31.4915 132.209 31.6035 132.45 31.8275C132.694 32.0515 132.799 32.4016 132.767 32.8767H132.29V32.8761Z" fill="black"/>
<path d="M134.542 33.7347C134.495 33.9544 134.479 34.1611 134.495 34.3574C134.511 34.5531 134.561 34.723 134.644 34.8651C134.727 35.0091 134.846 35.1236 135 35.2104C135.154 35.2959 135.342 35.339 135.566 35.339C135.874 35.339 136.154 35.2584 136.407 35.0965C136.659 34.9347 136.854 34.7045 136.99 34.4085H137.513C137.414 34.6011 137.301 34.7802 137.174 34.9439C137.045 35.1082 136.898 35.2504 136.732 35.374C136.565 35.4959 136.377 35.5919 136.168 35.659C135.961 35.7267 135.727 35.7611 135.473 35.7611C135.15 35.7611 134.882 35.7064 134.67 35.5968C134.46 35.4867 134.298 35.3371 134.186 35.1464C134.074 34.9562 134.01 34.7328 133.993 34.4737C133.978 34.2159 134.001 33.9384 134.065 33.6417C134.127 33.3439 134.229 33.0645 134.369 32.8042C134.51 32.5439 134.68 32.3156 134.881 32.1211C135.081 31.9254 135.309 31.771 135.561 31.659C135.814 31.5464 136.087 31.491 136.378 31.491C136.937 31.491 137.334 31.6836 137.571 32.067C137.809 32.4497 137.846 33.006 137.684 33.7353H134.542V33.7347ZM137.271 33.3445C137.312 33.147 137.325 32.9599 137.306 32.7857C137.288 32.6116 137.24 32.4602 137.162 32.3328C137.083 32.2042 136.971 32.1027 136.825 32.0276C136.68 31.9519 136.502 31.9144 136.294 31.9144C136.086 31.9144 135.894 31.9531 135.719 32.0307C135.545 32.11 135.386 32.214 135.245 32.3439C135.105 32.4737 134.983 32.6251 134.878 32.7968C134.774 32.9685 134.689 33.1519 134.628 33.3445H137.271Z" fill="black"/>
<path d="M143.488 29.2393V37.7869H143.09V29.2393H143.488Z" fill="black"/>
<path d="M148.415 35.6515L149.612 30.0208H153.358L153.264 30.4743H150.05L149.612 32.5088H152.513L152.42 32.9611H149.518L149.041 35.198H152.334L152.239 35.6515H148.415Z" fill="black"/>
<path d="M154.218 31.6006H154.726L155.305 35.0732L157.354 31.6006H157.862L155.43 35.6517H154.906L154.218 31.6006Z" fill="black"/>
<path d="M158.433 35.6516L159.293 31.6006H159.763L158.903 35.6516H158.433ZM159.458 30.7175L159.606 30.0203H160.123L159.974 30.7175H159.458Z" fill="black"/>
<path d="M165.089 30.0203H165.558L164.361 35.651H163.893L164.04 34.9403H164.025C163.931 35.075 163.818 35.1938 163.689 35.2953C163.559 35.3975 163.423 35.4824 163.282 35.5501C163.142 35.6172 162.999 35.6689 162.857 35.7064C162.713 35.7421 162.576 35.7612 162.446 35.7612C162.118 35.7612 161.849 35.7064 161.639 35.5969C161.431 35.4867 161.274 35.3372 161.171 35.1464C161.066 34.9563 161.009 34.731 160.994 34.4701C160.982 34.2092 161.007 33.9304 161.07 33.6344C161.132 33.3513 161.226 33.0812 161.351 32.8209C161.475 32.56 161.633 32.3323 161.824 32.136C162.014 31.9403 162.236 31.7852 162.489 31.667C162.741 31.5495 163.022 31.491 163.329 31.491C163.617 31.491 163.878 31.555 164.116 31.6836C164.352 31.811 164.518 32.0006 164.612 32.2504L165.089 30.0203ZM164.322 33.6104C164.369 33.3809 164.383 33.163 164.364 32.9569C164.346 32.7507 164.295 32.571 164.212 32.4172C164.129 32.2633 164.013 32.1409 163.864 32.0492C163.715 31.9587 163.535 31.9132 163.321 31.9132C163.076 31.9132 162.854 31.9606 162.656 32.0578C162.457 32.1526 162.283 32.2855 162.132 32.4523C161.98 32.619 161.855 32.8141 161.756 33.0356C161.658 33.2566 161.587 33.4941 161.546 33.7507C161.494 34.0049 161.481 34.232 161.51 34.427C161.538 34.6227 161.601 34.7883 161.694 34.923C161.788 35.0596 161.911 35.163 162.065 35.2332C162.219 35.3021 162.395 35.3384 162.593 35.3384C162.812 35.3384 163.017 35.2935 163.207 35.2061C163.398 35.1163 163.567 34.9956 163.714 34.8418C163.863 34.6873 163.989 34.5052 164.09 34.2941C164.193 34.0836 164.27 33.8566 164.322 33.6104Z" fill="black"/>
<path d="M166.902 33.7347C166.857 33.9544 166.84 34.1611 166.857 34.3574C166.872 34.5531 166.921 34.723 167.004 34.8651C167.088 35.0091 167.207 35.1236 167.361 35.2104C167.514 35.2959 167.703 35.339 167.927 35.339C168.236 35.339 168.515 35.2584 168.769 35.0965C169.021 34.9347 169.216 34.7045 169.351 34.4085H169.874C169.775 34.6011 169.662 34.7802 169.535 34.9439C169.406 35.1082 169.26 35.2504 169.093 35.374C168.926 35.4959 168.738 35.5919 168.529 35.659C168.321 35.7267 168.088 35.7611 167.834 35.7611C167.511 35.7611 167.244 35.7064 167.032 35.5968C166.82 35.4867 166.659 35.3371 166.547 35.1464C166.435 34.9562 166.371 34.7328 166.354 34.4737C166.339 34.2159 166.362 33.9384 166.426 33.6417C166.489 33.3439 166.59 33.0645 166.73 32.8042C166.871 32.5439 167.042 32.3156 167.243 32.1211C167.442 31.9254 167.671 31.771 167.922 31.659C168.176 31.5464 168.449 31.491 168.74 31.491C169.298 31.491 169.696 31.6836 169.932 32.067C170.17 32.4497 170.207 33.006 170.046 33.7353H166.902V33.7347ZM169.632 33.3445C169.673 33.147 169.686 32.9599 169.667 32.7857C169.649 32.6116 169.601 32.4602 169.524 32.3328C169.444 32.2042 169.332 32.1027 169.186 32.0276C169.041 31.9519 168.863 31.9144 168.655 31.9144C168.446 31.9144 168.255 31.9531 168.08 32.0307C167.905 32.11 167.748 32.214 167.606 32.3439C167.466 32.4737 167.344 32.6251 167.239 32.7968C167.135 32.9685 167.051 33.1519 166.989 33.3445H169.632Z" fill="black"/>
<path d="M171.689 35.6516H171.22L172.079 31.6005H172.549L172.431 32.1642C172.661 31.966 172.889 31.8042 173.116 31.6799C173.342 31.5531 173.596 31.491 173.879 31.491C174.127 31.491 174.351 31.5347 174.546 31.6208C174.741 31.7064 174.889 31.8565 174.989 32.07C175.056 32.2159 175.084 32.3648 175.072 32.5187C175.058 32.6731 175.033 32.8337 174.996 32.9999L174.434 35.651H173.964L174.527 33.0079C174.606 32.6424 174.583 32.3685 174.461 32.1864C174.338 32.0048 174.089 31.9137 173.715 31.9137C173.569 31.9137 173.43 31.9347 173.3 31.979C173.168 32.0239 173.048 32.0824 172.936 32.1544C172.823 32.2288 172.723 32.3119 172.635 32.4054C172.546 32.4996 172.473 32.5987 172.417 32.702C172.343 32.8331 172.288 32.9574 172.252 33.0774C172.215 33.1974 172.181 33.3273 172.151 33.4694L171.689 35.6516Z" fill="black"/>
<path d="M179.69 32.8761C179.673 32.5727 179.583 32.337 179.416 32.1684C179.249 31.9991 179.009 31.9142 178.695 31.9142C178.456 31.9142 178.24 31.9635 178.047 32.0625C177.854 32.1616 177.684 32.2933 177.538 32.4576C177.393 32.6219 177.272 32.8059 177.18 33.0121C177.086 33.2182 177.015 33.4262 176.968 33.6348C176.921 33.849 176.901 34.0564 176.91 34.2601C176.917 34.4638 176.958 34.6459 177.034 34.8078C177.109 34.9696 177.223 35.0988 177.374 35.1948C177.526 35.2908 177.724 35.3395 177.969 35.3395C178.317 35.3395 178.619 35.2428 178.873 35.0508C179.124 34.8576 179.314 34.5911 179.439 34.2521H179.939C179.85 34.4755 179.742 34.6804 179.61 34.8656C179.481 35.0521 179.329 35.2108 179.158 35.3425C178.986 35.4761 178.792 35.5782 178.579 35.6515C178.365 35.7247 178.13 35.7616 177.874 35.7616C177.551 35.7616 177.284 35.7068 177.074 35.5973C176.862 35.4871 176.701 35.3376 176.589 35.1468C176.476 34.9567 176.412 34.7315 176.396 34.4705C176.382 34.2096 176.404 33.9308 176.466 33.6348C176.524 33.3518 176.62 33.0828 176.757 32.8256C176.892 32.5671 177.058 32.3388 177.257 32.1407C177.455 31.9419 177.683 31.7856 177.942 31.6675C178.199 31.5499 178.479 31.4915 178.782 31.4915C179.252 31.4915 179.606 31.6035 179.849 31.8275C180.092 32.0515 180.196 32.4016 180.167 32.8767H179.69V32.8761Z" fill="black"/>
<path d="M181.941 33.7347C181.894 33.9544 181.879 34.1611 181.894 34.3574C181.91 34.5531 181.959 34.723 182.043 34.8651C182.126 35.0091 182.244 35.1236 182.398 35.2104C182.552 35.2959 182.742 35.339 182.966 35.339C183.273 35.339 183.554 35.2584 183.806 35.0965C184.059 34.9347 184.253 34.7045 184.388 34.4085H184.913C184.814 34.6011 184.7 34.7802 184.572 34.9439C184.445 35.1082 184.297 35.2504 184.13 35.374C183.963 35.4959 183.777 35.5919 183.567 35.659C183.359 35.7267 183.127 35.7611 182.871 35.7611C182.548 35.7611 182.281 35.7064 182.069 35.5968C181.858 35.4867 181.697 35.3371 181.584 35.1464C181.472 34.9562 181.409 34.7328 181.393 34.4737C181.378 34.2159 181.401 33.9384 181.463 33.6417C181.526 33.3439 181.627 33.0645 181.768 32.8042C181.909 32.5439 182.079 32.3156 182.28 32.1211C182.481 31.9254 182.708 31.771 182.961 31.659C183.212 31.5464 183.486 31.491 183.778 31.491C184.335 31.491 184.732 31.6836 184.97 32.067C185.208 32.4497 185.245 33.006 185.084 33.7353H181.941V33.7347ZM184.67 33.3445C184.712 33.147 184.724 32.9599 184.706 32.7857C184.687 32.6116 184.641 32.4602 184.561 32.3328C184.484 32.2042 184.372 32.1027 184.225 32.0276C184.079 31.9519 183.902 31.9144 183.693 31.9144C183.485 31.9144 183.294 31.9531 183.119 32.0307C182.943 32.11 182.785 32.214 182.646 32.3439C182.504 32.4737 182.382 32.6251 182.278 32.7968C182.173 32.9685 182.09 33.1519 182.028 33.3445H184.67Z" fill="black"/>
</g>
<defs>
<clipPath id="clip0_1975_1072">
<rect width="196.923" height="40" fill="white"/>
</clipPath>
</defs>
</svg>
