<svg width="45" height="44" viewBox="0 0 45 44" fill="none" xmlns="http://www.w3.org/2000/svg">
<rect x="0.461548" width="44" height="44" rx="22" fill="white" fill-opacity="0.16"/>
<path d="M32.0171 10.625H13.0305C11.993 10.625 11.0865 11.3715 11.0865 12.3968V31.4255C11.0865 32.4564 11.993 33.375 13.0305 33.375H32.0115C33.0545 33.375 33.8365 32.4503 33.8365 31.4255V12.3968C33.8426 11.3715 33.0545 10.625 32.0171 10.625ZM18.1385 29.5882H14.8794V19.4548H18.1385V29.5882ZM16.6217 17.9141H16.5983C15.5553 17.9141 14.8799 17.1377 14.8799 16.1657C14.8799 15.176 15.5731 14.4179 16.6395 14.4179C17.7059 14.4179 18.3584 15.1704 18.3818 16.1657C18.3813 17.1377 17.7059 17.9141 16.6217 17.9141ZM30.0498 29.5882H26.7906V24.0475C26.7906 22.7201 26.3164 21.8131 25.1372 21.8131C24.2364 21.8131 23.7031 22.4225 23.466 23.0161C23.3771 23.2294 23.3533 23.5199 23.3533 23.8164V29.5882H20.0941V19.4548H23.3533V20.865C23.8276 20.1896 24.5685 19.2177 26.2925 19.2177C28.4319 19.2177 30.0503 20.6279 30.0503 23.6682L30.0498 29.5882Z" fill="white"/>
</svg>
