<svg width="153" height="24" viewBox="0 0 153 24" fill="none" xmlns="http://www.w3.org/2000/svg">
<path d="M11.6916 2.48799C11.9461 1.70488 13.0539 1.70488 13.3084 2.48799L15.0033 7.70446C15.1171 8.05468 15.4435 8.2918 15.8117 8.2918H21.2966C22.1201 8.2918 22.4624 9.34547 21.7963 9.82946L17.3589 13.0534C17.061 13.2699 16.9363 13.6535 17.0501 14.0037L18.745 19.2202C18.9995 20.0033 18.1032 20.6545 17.437 20.1705L12.9996 16.9466C12.7017 16.7301 12.2983 16.7301 12.0004 16.9466L7.56299 20.1705C6.89684 20.6545 6.00053 20.0033 6.25498 19.2202L7.94991 14.0037C8.0637 13.6535 7.93904 13.2699 7.64113 13.0534L3.20374 9.82946C2.53758 9.34547 2.87994 8.2918 3.70335 8.2918H9.18827C9.55651 8.2918 9.88288 8.05468 9.99667 7.70446L11.6916 2.48799Z" fill="#F3B605"/>
<path d="M43.6916 2.48799C43.9461 1.70488 45.0539 1.70488 45.3084 2.48799L47.0033 7.70446C47.1171 8.05468 47.4435 8.2918 47.8117 8.2918H53.2966C54.1201 8.2918 54.4624 9.34547 53.7963 9.82946L49.3589 13.0534C49.061 13.2699 48.9363 13.6535 49.0501 14.0037L50.745 19.2202C50.9995 20.0033 50.1032 20.6545 49.437 20.1705L44.9996 16.9466C44.7017 16.7301 44.2983 16.7301 44.0004 16.9466L39.563 20.1705C38.8968 20.6545 38.0005 20.0033 38.255 19.2202L39.9499 14.0037C40.0637 13.6535 39.939 13.2699 39.6411 13.0534L35.2037 9.82946C34.5376 9.34547 34.8799 8.2918 35.7034 8.2918H41.1883C41.5565 8.2918 41.8829 8.05468 41.9967 7.70446L43.6916 2.48799Z" fill="#F3B605"/>
<path d="M75.6916 2.48799C75.9461 1.70488 77.0539 1.70488 77.3084 2.48799L79.0033 7.70446C79.1171 8.05468 79.4435 8.2918 79.8117 8.2918H85.2966C86.1201 8.2918 86.4624 9.34547 85.7963 9.82946L81.3589 13.0534C81.061 13.2699 80.9363 13.6535 81.0501 14.0037L82.745 19.2202C82.9995 20.0033 82.1032 20.6545 81.437 20.1705L76.9996 16.9466C76.7017 16.7301 76.2983 16.7301 76.0004 16.9466L71.563 20.1705C70.8968 20.6545 70.0005 20.0033 70.255 19.2202L71.9499 14.0037C72.0637 13.6535 71.939 13.2699 71.6411 13.0534L67.2037 9.82946C66.5376 9.34547 66.8799 8.2918 67.7034 8.2918H73.1883C73.5565 8.2918 73.8829 8.05468 73.9967 7.70446L75.6916 2.48799Z" fill="#F3B605"/>
<path d="M107.692 2.48799C107.946 1.70488 109.054 1.70488 109.308 2.48799L111.003 7.70446C111.117 8.05468 111.443 8.2918 111.812 8.2918H117.297C118.12 8.2918 118.462 9.34547 117.796 9.82946L113.359 13.0534C113.061 13.2699 112.936 13.6535 113.05 14.0037L114.745 19.2202C114.999 20.0033 114.103 20.6545 113.437 20.1705L109 16.9466C108.702 16.7301 108.298 16.7301 108 16.9466L103.563 20.1705C102.897 20.6545 102.001 20.0033 102.255 19.2202L103.95 14.0037C104.064 13.6535 103.939 13.2699 103.641 13.0534L99.2037 9.82946C98.5376 9.34547 98.8799 8.2918 99.7034 8.2918H105.188C105.557 8.2918 105.883 8.05468 105.997 7.70446L107.692 2.48799Z" fill="#F3B605"/>
<path d="M139.692 2.48799C139.946 1.70488 141.054 1.70488 141.308 2.48799L143.003 7.70446C143.117 8.05468 143.443 8.2918 143.812 8.2918H149.297C150.12 8.2918 150.462 9.34547 149.796 9.82946L145.359 13.0534C145.061 13.2699 144.936 13.6535 145.05 14.0037L146.745 19.2202C146.999 20.0033 146.103 20.6545 145.437 20.1705L141 16.9466C140.702 16.7301 140.298 16.7301 140 16.9466L135.563 20.1705C134.897 20.6545 134.001 20.0033 134.255 19.2202L135.95 14.0037C136.064 13.6535 135.939 13.2699 135.641 13.0534L131.204 9.82946C130.538 9.34547 130.88 8.2918 131.703 8.2918H137.188C137.557 8.2918 137.883 8.05468 137.997 7.70446L139.692 2.48799Z" fill="#F3B605"/>
</svg>
