<svg width="45" height="44" viewBox="0 0 45 44" fill="none" xmlns="http://www.w3.org/2000/svg">
<g id="Frame 1147">
<rect x="0.461548" width="44" height="44" rx="22" fill="white" fill-opacity="0.16"/>
<path id="Subtract" fill-rule="evenodd" clip-rule="evenodd" d="M17.0448 11.1675H27.8781C30.8697 11.1675 33.2948 13.5926 33.2948 16.5841V27.4175C33.2948 30.409 30.8697 32.8341 27.8781 32.8341H17.0448C14.0533 32.8341 11.6281 30.409 11.6281 27.4175V16.5841C11.6281 13.5926 14.0533 11.1675 17.0448 11.1675ZM26.3547 23.9497C26.7745 23.1406 26.9285 22.2198 26.7948 21.3182C26.6584 20.3986 26.2299 19.5471 25.5725 18.8897C24.9151 18.2323 24.0636 17.8038 23.144 17.6674C22.2424 17.5337 21.3216 17.6877 20.5125 18.1075C19.7035 18.5273 19.0475 19.1915 18.6377 20.0056C18.2279 20.8198 18.0853 21.7424 18.2301 22.6423C18.3749 23.5422 18.7997 24.3735 19.4442 25.018C20.0887 25.6625 20.92 26.0874 21.8199 26.2322C22.7198 26.377 23.6424 26.2343 24.4566 25.8245C25.2707 25.4148 25.9349 24.7587 26.3547 23.9497Z" fill="white"/>
</g>
</svg>
