<svg width="31" height="30" viewBox="0 0 31 30" fill="none" xmlns="http://www.w3.org/2000/svg">
<g id="Frame 1147">
<path id="Subtract" fill-rule="evenodd" clip-rule="evenodd" d="M26.8213 7.99077C27.1965 8.37753 27.4629 8.85643 27.5938 9.37912C27.9432 11.3161 28.1127 13.2811 28.1004 15.2493C28.1074 17.188 27.9378 19.1234 27.5938 21.0313C27.4629 21.554 27.1965 22.0329 26.8213 22.4197C26.4462 22.8064 25.9756 23.0874 25.4572 23.234C23.5628 23.7407 15.9856 23.7407 15.9856 23.7407C15.9856 23.7407 8.40835 23.7407 6.51404 23.234C6.00612 23.0951 5.54263 22.8274 5.16835 22.457C4.79407 22.0866 4.52166 21.6259 4.37743 21.1195C4.02804 19.1825 3.85845 17.2174 3.87081 15.2493C3.86116 13.2958 4.03074 11.3456 4.37743 9.42317C4.50825 8.90049 4.7747 8.42158 5.14985 8.03483C5.525 7.64807 5.99557 7.36717 6.51404 7.22049C8.40835 6.71387 15.9856 6.71387 15.9856 6.71387C15.9856 6.71387 23.5628 6.71387 25.4572 7.17643C25.9756 7.32311 26.4462 7.60402 26.8213 7.99077ZM19.8403 15.2493L13.5076 18.8507V11.6479L19.8403 15.2493Z" fill="white"/>
</g>
</svg>
