<svg width="25" height="24" viewBox="0 0 25 24" fill="none" xmlns="http://www.w3.org/2000/svg">
<g id="Group">
<path id="Vector" d="M3.07143 4.28577C2.61677 4.28577 2.18073 4.46638 1.85924 4.78787C1.53775 5.10936 1.35714 5.5454 1.35714 6.00005V21.4286C1.35714 21.8833 1.53775 22.3193 1.85924 22.6408C2.18073 22.9623 2.61677 23.1429 3.07143 23.1429H21.9286C22.3832 23.1429 22.8193 22.9623 23.1408 22.6408C23.4622 22.3193 23.6429 21.8833 23.6429 21.4286V6.00005C23.6429 5.5454 23.4622 5.10936 23.1408 4.78787C22.8193 4.46638 22.3832 4.28577 21.9286 4.28577H18.5" stroke="#3F3F46" stroke-width="1.5" stroke-linecap="round" stroke-linejoin="round"/>
<path id="Vector_2" d="M6.5 0.857178V7.71432" stroke="#3F3F46" stroke-width="1.5" stroke-linecap="round" stroke-linejoin="round"/>
<path id="Vector_3" d="M18.5 0.857178V7.71432" stroke="#3F3F46" stroke-width="1.5" stroke-linecap="round" stroke-linejoin="round"/>
<path id="Vector_4" d="M6.5 4.28577H15.0714" stroke="#3F3F46" stroke-width="1.5" stroke-linecap="round" stroke-linejoin="round"/>
<path id="Vector_5" d="M16.7857 13.7144H8.21428" stroke="#3F3F46" stroke-width="1.5" stroke-linecap="round" stroke-linejoin="round"/>
<path id="Vector_6" d="M12.5 9.42859V18" stroke="#3F3F46" stroke-width="1.5" stroke-linecap="round" stroke-linejoin="round"/>
</g>
</svg>
