<svg width="25" height="24" viewBox="0 0 25 24" fill="none" xmlns="http://www.w3.org/2000/svg">
<g id="Group">
<path id="Vector" d="M5.64285 11.9999V7.49132C5.65624 6.60509 5.84437 5.73021 6.19646 4.91681C6.54855 4.10342 7.05768 3.36748 7.69468 2.75119C8.33168 2.13489 9.08402 1.65035 9.90861 1.32532C10.7332 1.00028 11.6138 0.841151 12.5 0.85704V0.85704C13.3862 0.841151 14.2668 1.00028 15.0914 1.32532C15.916 1.65035 16.6683 2.13489 17.3053 2.75119C17.9423 3.36748 18.4514 4.10342 18.8035 4.91681C19.1556 5.73021 19.3437 6.60509 19.3571 7.49132V11.9999" stroke="#3F3F46" stroke-width="1.5" stroke-linecap="round" stroke-linejoin="round"/>
<path id="Vector_2" d="M3.07143 9.42847H4.78572C5.01305 9.42847 5.23106 9.51877 5.39181 9.67952C5.55256 9.84026 5.64286 10.0583 5.64286 10.2856V15.4285C5.64286 15.6558 5.55256 15.8738 5.39181 16.0346C5.23106 16.1953 5.01305 16.2856 4.78572 16.2856H3.07143C2.61678 16.2856 2.18074 16.105 1.85925 15.7835C1.53776 15.462 1.35715 15.026 1.35715 14.5713V11.1428C1.35715 10.6881 1.53776 10.2521 1.85925 9.93057C2.18074 9.60908 2.61678 9.42847 3.07143 9.42847V9.42847Z" stroke="#3F3F46" stroke-width="1.5" stroke-linecap="round" stroke-linejoin="round"/>
<path id="Vector_3" d="M21.9286 16.2856H20.2143C19.987 16.2856 19.7689 16.1953 19.6082 16.0346C19.4474 15.8738 19.3571 15.6558 19.3571 15.4285V10.2856C19.3571 10.0583 19.4474 9.8403 19.6082 9.67955C19.7689 9.51881 19.987 9.4285 20.2143 9.4285H21.9286C22.3832 9.4285 22.8193 9.60911 23.1407 9.9306C23.4622 10.2521 23.6429 10.6881 23.6429 11.1428V14.5714C23.6429 15.026 23.4622 15.4621 23.1407 15.7835C22.8193 16.105 22.3832 16.2856 21.9286 16.2856V16.2856Z" stroke="#3F3F46" stroke-width="1.5" stroke-linecap="round" stroke-linejoin="round"/>
<path id="Vector_4" d="M15.9286 20.9998C16.8379 20.9998 17.71 20.6386 18.353 19.9956C18.9959 19.3526 19.3572 18.4806 19.3572 17.5713V13.7141" stroke="#3F3F46" stroke-width="1.5" stroke-linecap="round" stroke-linejoin="round"/>
<path id="Vector_5" d="M15.9286 20.9998C15.9286 21.5681 15.7028 22.1132 15.301 22.515C14.8991 22.9169 14.354 23.1426 13.7857 23.1426H11.2143C10.646 23.1426 10.1009 22.9169 9.69907 22.515C9.29721 22.1132 9.07144 21.5681 9.07144 20.9998C9.07144 20.4315 9.29721 19.8864 9.69907 19.4846C10.1009 19.0827 10.646 18.8569 11.2143 18.8569H13.7857C14.354 18.8569 14.8991 19.0827 15.301 19.4846C15.7028 19.8864 15.9286 20.4315 15.9286 20.9998Z" stroke="#3F3F46" stroke-width="1.5" stroke-linecap="round" stroke-linejoin="round"/>
</g>
</svg>
