<svg width="25" height="24" viewBox="0 0 25 24" fill="none" xmlns="http://www.w3.org/2000/svg">
<g id="Group">
<path id="Vector" d="M10.7857 8.28002L6.92858 1.61145C5.23579 2.58678 3.82966 3.99066 2.85164 5.68189C1.87361 7.37312 1.35817 9.29207 1.35715 11.2457H9.07143C9.07205 10.6445 9.23076 10.054 9.53165 9.53344C9.83254 9.01291 10.265 8.58064 10.7857 8.28002Z" stroke="#3F3F46" stroke-width="1.5" stroke-linecap="round" stroke-linejoin="round"/>
<path id="Vector_2" d="M15.9286 11.2457H23.6429C23.6418 9.29207 23.1264 7.37312 22.1484 5.68189C21.1703 3.99066 19.7642 2.58678 18.0714 1.61145L14.2143 8.28002C14.735 8.58064 15.1675 9.01291 15.4684 9.53344C15.7693 10.054 15.928 10.6445 15.9286 11.2457Z" stroke="#3F3F46" stroke-width="1.5" stroke-linecap="round" stroke-linejoin="round"/>
<path id="Vector_3" d="M12.5 14.6744C11.8994 14.6785 11.3083 14.5248 10.7857 14.2286L6.92859 20.8972C8.62308 21.8735 10.5444 22.3874 12.5 22.3874C14.4557 22.3874 16.377 21.8735 18.0714 20.8972L14.2143 14.2286C13.6918 14.5248 13.1006 14.6785 12.5 14.6744V14.6744Z" stroke="#3F3F46" stroke-width="1.5" stroke-linecap="round" stroke-linejoin="round"/>
</g>
</svg>
