<svg width="22" height="22" viewBox="0 0 22 22" fill="none" xmlns="http://www.w3.org/2000/svg">
<path fill-rule="evenodd" clip-rule="evenodd" d="M5.41667 0H16.25C19.2415 0 21.6667 2.42512 21.6667 5.41667V16.25C21.6667 19.2415 19.2415 21.6667 16.25 21.6667H5.41667C2.42512 21.6667 0 19.2415 0 16.25V5.41667C0 2.42512 2.42512 0 5.41667 0ZM14.7266 12.7823C15.1464 11.9733 15.3004 11.0525 15.1667 10.1509C15.0303 9.2312 14.6018 8.37978 13.9443 7.72236C13.2869 7.06495 12.4355 6.63641 11.5158 6.50003C10.6142 6.36633 9.69344 6.52033 8.8844 6.94013C8.07537 7.35992 7.41931 8.02412 7.00952 8.83827C6.59974 9.65242 6.45711 10.575 6.60191 11.4749C6.74671 12.3748 7.17158 13.2061 7.81608 13.8506C8.46058 14.4951 9.29189 14.92 10.1918 15.0648C11.0917 15.2096 12.0143 15.067 12.8284 14.6572C13.6426 14.2474 14.3068 13.5913 14.7266 12.7823Z" fill="white"/>
</svg>
