<svg width="45" height="44" viewBox="0 0 45 44" fill="none" xmlns="http://www.w3.org/2000/svg">
<rect x="0.461548" width="44" height="44" rx="22" fill="white" fill-opacity="0.16"/>
<path fill-rule="evenodd" clip-rule="evenodd" d="M33.8213 14.9908C34.1965 15.3775 34.4629 15.8564 34.5938 16.3791C34.9432 18.3161 35.1127 20.2811 35.1004 22.2493C35.1074 24.188 34.9378 26.1234 34.5938 28.0313C34.4629 28.554 34.1965 29.0329 33.8213 29.4197C33.4462 29.8064 32.9756 30.0874 32.4572 30.234C30.5628 30.7407 22.9856 30.7407 22.9856 30.7407C22.9856 30.7407 15.4083 30.7407 13.514 30.234C13.0061 30.0951 12.5426 29.8274 12.1684 29.457C11.7941 29.0866 11.5217 28.6259 11.3774 28.1195C11.028 26.1825 10.8584 24.2174 10.8708 22.2493C10.8612 20.2958 11.0307 18.3456 11.3774 16.4232C11.5083 15.9005 11.7747 15.4216 12.1499 15.0348C12.525 14.6481 12.9956 14.3672 13.514 14.2205C15.4083 13.7139 22.9856 13.7139 22.9856 13.7139C22.9856 13.7139 30.5628 13.7139 32.4572 14.1764C32.9756 14.3231 33.4462 14.604 33.8213 14.9908ZM26.8403 22.2493L20.5076 25.8507V18.6479L26.8403 22.2493Z" fill="white"/>
</svg>
