<svg width="27" height="26" viewBox="0 0 27 26" fill="none" xmlns="http://www.w3.org/2000/svg">
<path d="M23.0171 1.625H4.03045C2.99299 1.625 2.08655 2.37148 2.08655 3.39676V22.4255C2.08655 23.4564 2.99299 24.375 4.03045 24.375H23.0115C24.0545 24.375 24.8365 23.4503 24.8365 22.4255V3.39676C24.8426 2.37148 24.0545 1.625 23.0171 1.625ZM9.13854 20.5882H5.8794V10.4548H9.13854V20.5882ZM7.6217 8.91414H7.59834C6.5553 8.91414 5.87991 8.1377 5.87991 7.16574C5.87991 6.17602 6.57307 5.41785 7.63948 5.41785C8.70588 5.41785 9.35842 6.17043 9.38178 7.16574C9.38127 8.1377 8.70588 8.91414 7.6217 8.91414ZM21.0498 20.5882H17.7906V15.0475C17.7906 13.7201 17.3164 12.8131 16.1372 12.8131C15.2364 12.8131 14.7031 13.4225 14.466 14.0161C14.3771 14.2294 14.3533 14.5199 14.3533 14.8164V20.5882H11.0941V10.4548H14.3533V11.865C14.8276 11.1896 15.5685 10.2177 17.2925 10.2177C19.4319 10.2177 21.0503 11.6279 21.0503 14.6682L21.0498 20.5882Z" fill="white"/>
</svg>
