<svg width="25" height="24" viewBox="0 0 25 24" fill="none" xmlns="http://www.w3.org/2000/svg">
<g id="Group">
<path id="Vector" d="M10.7857 8.28014L6.92858 1.61157C5.23579 2.5869 3.82966 3.99078 2.85164 5.68201C1.87361 7.37324 1.35817 9.29219 1.35715 11.2459H9.07143C9.07205 10.6446 9.23076 10.0541 9.53165 9.53357C9.83254 9.01303 10.265 8.58077 10.7857 8.28014Z" stroke="#3F3F46" stroke-width="1.5" stroke-linecap="round" stroke-linejoin="round"/>
<path id="Vector_2" d="M15.9286 11.2459H23.6429C23.6418 9.29219 23.1264 7.37324 22.1484 5.68201C21.1703 3.99078 19.7642 2.5869 18.0714 1.61157L14.2143 8.28014C14.735 8.58077 15.1675 9.01303 15.4684 9.53357C15.7693 10.0541 15.928 10.6446 15.9286 11.2459Z" stroke="#3F3F46" stroke-width="1.5" stroke-linecap="round" stroke-linejoin="round"/>
<path id="Vector_3" d="M12.5 14.6745C11.8994 14.6786 11.3083 14.5249 10.7857 14.2288L6.92859 20.8973C8.62308 21.8736 10.5444 22.3875 12.5 22.3875C14.4557 22.3875 16.377 21.8736 18.0714 20.8973L14.2143 14.2288C13.6918 14.5249 13.1006 14.6786 12.5 14.6745V14.6745Z" stroke="#3F3F46" stroke-width="1.5" stroke-linecap="round" stroke-linejoin="round"/>
</g>
</svg>
