<svg width="17" height="24" viewBox="0 0 17 24" fill="none" xmlns="http://www.w3.org/2000/svg">
<g id="Group">
<path id="Vector" d="M16.2143 8.57146C16.2143 12.84 8.5 23.1429 8.5 23.1429C8.5 23.1429 0.785713 12.84 0.785713 8.57146C0.785713 6.52551 1.59847 4.56335 3.04518 3.11664C4.49188 1.66993 6.45404 0.857178 8.5 0.857178C10.546 0.857178 12.5081 1.66993 13.9548 3.11664C15.4015 4.56335 16.2143 6.52551 16.2143 8.57146V8.57146Z" stroke="#3F3F46" stroke-width="1.5" stroke-linecap="round" stroke-linejoin="round"/>
<path id="Vector_2" d="M8.5 11.1429C9.92016 11.1429 11.0714 9.99159 11.0714 8.57143C11.0714 7.15127 9.92016 6 8.5 6C7.07984 6 5.92857 7.15127 5.92857 8.57143C5.92857 9.99159 7.07984 11.1429 8.5 11.1429Z" stroke="#3F3F46" stroke-width="1.5" stroke-linecap="round" stroke-linejoin="round"/>
</g>
</svg>
