<svg width="25" height="24" viewBox="0 0 25 24" fill="none" xmlns="http://www.w3.org/2000/svg">
<g id="Group">
<path id="Vector" d="M3.07143 4.28589C2.61677 4.28589 2.18073 4.4665 1.85924 4.78799C1.53775 5.10948 1.35714 5.54552 1.35714 6.00017V21.4287C1.35714 21.8834 1.53775 22.3194 1.85924 22.6409C2.18073 22.9624 2.61677 23.143 3.07143 23.143H21.9286C22.3832 23.143 22.8193 22.9624 23.1408 22.6409C23.4622 22.3194 23.6429 21.8834 23.6429 21.4287V6.00017C23.6429 5.54552 23.4622 5.10948 23.1408 4.78799C22.8193 4.4665 22.3832 4.28589 21.9286 4.28589H18.5" stroke="#3F3F46" stroke-width="1.5" stroke-linecap="round" stroke-linejoin="round"/>
<path id="Vector_2" d="M6.5 0.8573V7.71444" stroke="#3F3F46" stroke-width="1.5" stroke-linecap="round" stroke-linejoin="round"/>
<path id="Vector_3" d="M18.5 0.8573V7.71444" stroke="#3F3F46" stroke-width="1.5" stroke-linecap="round" stroke-linejoin="round"/>
<path id="Vector_4" d="M6.5 4.28589H15.0714" stroke="#3F3F46" stroke-width="1.5" stroke-linecap="round" stroke-linejoin="round"/>
<path id="Vector_5" d="M16.7857 13.7145H8.21428" stroke="#3F3F46" stroke-width="1.5" stroke-linecap="round" stroke-linejoin="round"/>
<path id="Vector_6" d="M12.5 9.42871V18.0001" stroke="#3F3F46" stroke-width="1.5" stroke-linecap="round" stroke-linejoin="round"/>
</g>
</svg>
