<svg width="24" height="25" viewBox="0 0 24 25" fill="none" xmlns="http://www.w3.org/2000/svg">
<g clip-path="url(#clip0_1977_30)">
<path d="M23.1428 14.2143L16.0799 23.6429L11.3657 20.1114" stroke="white" stroke-width="1.5" stroke-linecap="round" stroke-linejoin="round"/>
<path d="M8.57138 9.07143C10.7016 9.07143 12.4285 7.34453 12.4285 5.21429C12.4285 3.08405 10.7016 1.35715 8.57138 1.35715C6.44114 1.35715 4.71423 3.08405 4.71423 5.21429C4.71423 7.34453 6.44114 9.07143 8.57138 9.07143Z" stroke="white" stroke-width="1.5" stroke-linecap="round" stroke-linejoin="round"/>
<path d="M5.14283 21.9286H0.857117V19.3572C0.858458 17.8324 1.31162 16.3422 2.15937 15.0749C3.00712 13.8075 4.21142 12.8198 5.62019 12.2365C7.02895 11.6532 8.57899 11.5004 10.0745 11.7975C11.57 12.0946 12.944 12.8282 14.0228 13.9057" stroke="white" stroke-width="1.5" stroke-linecap="round" stroke-linejoin="round"/>
</g>
<defs>
<clipPath id="clip0_1977_30">
<rect width="24" height="24" fill="white" transform="translate(0 0.5)"/>
</clipPath>
</defs>
</svg>
