<svg width="24" height="24" viewBox="0 0 24 24" fill="none" xmlns="http://www.w3.org/2000/svg">
<g clip-path="url(#clip0_2065_323)">
<path d="M2.57146 4.28564C2.11681 4.28564 1.68077 4.46626 1.35928 4.78775C1.03779 5.10924 0.857178 5.54527 0.857178 5.99993V21.4285C0.857178 21.8832 1.03779 22.3192 1.35928 22.6407C1.68077 22.9622 2.11681 23.1428 2.57146 23.1428H21.4286C21.8833 23.1428 22.3193 22.9622 22.6408 22.6407C22.9623 22.3192 23.1429 21.8832 23.1429 21.4285V5.99993C23.1429 5.54527 22.9623 5.10924 22.6408 4.78775C22.3193 4.46626 21.8833 4.28564 21.4286 4.28564H18" stroke="#3F3F46" stroke-width="1.5" stroke-linecap="round" stroke-linejoin="round"/>
<path d="M6 0.857178V7.71432" stroke="#3F3F46" stroke-width="1.5" stroke-linecap="round" stroke-linejoin="round"/>
<path d="M18 0.857178V7.71432" stroke="#3F3F46" stroke-width="1.5" stroke-linecap="round" stroke-linejoin="round"/>
<path d="M6 4.28564H14.5714" stroke="#3F3F46" stroke-width="1.5" stroke-linecap="round" stroke-linejoin="round"/>
<path d="M16.2858 13.7144H7.71436" stroke="#3F3F46" stroke-width="1.5" stroke-linecap="round" stroke-linejoin="round"/>
<path d="M12 9.42871V18.0001" stroke="#3F3F46" stroke-width="1.5" stroke-linecap="round" stroke-linejoin="round"/>
</g>
<defs>
<clipPath id="clip0_2065_323">
<rect width="24" height="24" fill="white"/>
</clipPath>
</defs>
</svg>
