<svg width="18" height="17" viewBox="0 0 18 17" fill="none" xmlns="http://www.w3.org/2000/svg">
<path d="M8.31719 0.954947C8.56826 0.182234 9.66144 0.182233 9.91251 0.954945L11.2803 5.16464C11.3926 5.51021 11.7146 5.74418 12.078 5.74418L16.5043 5.74418C17.3168 5.74418 17.6546 6.78385 16.9973 7.26142L13.4163 9.86315C13.1224 10.0767 12.9994 10.4553 13.1116 10.8009L14.4795 15.0106C14.7305 15.7833 13.8461 16.4258 13.1888 15.9483L9.60783 13.3465C9.31388 13.133 8.91583 13.133 8.62187 13.3465L5.04089 15.9483C4.38358 16.4258 3.49918 15.7833 3.75025 15.0106L5.11806 10.8009C5.23034 10.4553 5.10734 10.0767 4.81338 9.86315L1.2324 7.26142C0.575093 6.78385 0.912903 5.74418 1.72538 5.74418L6.15172 5.74418C6.51507 5.74418 6.8371 5.51021 6.94938 5.16464L8.31719 0.954947Z" fill="#F3B605"/>
</svg>
