<svg width="23" height="22" viewBox="0 0 23 22" fill="none" xmlns="http://www.w3.org/2000/svg">
<path fill-rule="evenodd" clip-rule="evenodd" d="M6.04481 0.16748H16.8781C19.8697 0.16748 22.2948 2.5926 22.2948 5.58415V16.4175C22.2948 19.409 19.8697 21.8341 16.8781 21.8341H6.04481C3.05327 21.8341 0.628143 19.409 0.628143 16.4175V5.58415C0.628143 2.5926 3.05327 0.16748 6.04481 0.16748ZM15.3547 12.9497C15.7745 12.1406 15.9285 11.2198 15.7948 10.3182C15.6584 9.39857 15.2299 8.54715 14.5725 7.88973C13.9151 7.23232 13.0636 6.80378 12.144 6.6674C11.2424 6.53371 10.3216 6.68771 9.51255 7.1075C8.70352 7.52729 8.04745 8.19149 7.63767 9.00564C7.22788 9.81979 7.08525 10.7424 7.23005 11.6423C7.37486 12.5422 7.79972 13.3735 8.44422 14.018C9.08872 14.6625 9.92003 15.0874 10.8199 15.2322C11.7198 15.377 12.6424 15.2343 13.4566 14.8245C14.2707 14.4148 14.9349 13.7587 15.3547 12.9497Z" fill="white"/>
</svg>
