<svg width="19" height="18" viewBox="0 0 19 18" fill="none" xmlns="http://www.w3.org/2000/svg">
<path d="M15.7088 6.42854C15.7088 9.62996 9.9231 17.3571 9.9231 17.3571C9.9231 17.3571 4.13739 9.62996 4.13739 6.42854C4.13739 4.89407 4.74695 3.42245 5.83199 2.33742C6.91702 1.25239 8.38864 0.642822 9.9231 0.642822C11.4576 0.642822 12.9292 1.25239 14.0142 2.33742C15.0993 3.42245 15.7088 4.89407 15.7088 6.42854Z" fill="#3F3F46"/>
<path d="M9.92308 8.35714C10.9882 8.35714 11.8516 7.49369 11.8516 6.42857C11.8516 5.36345 10.9882 4.5 9.92308 4.5C8.85796 4.5 7.99451 5.36345 7.99451 6.42857C7.99451 7.49369 8.85796 8.35714 9.92308 8.35714Z" fill="#FDF4FF"/>
</svg>
